<?xml version="1.0" standalone="no"?>
<svg xmlns:xlink="http://www.w3.org/1999/xlink" id="wave" style="transform:rotate(0deg); transition: 0.3s" viewBox="0 0 1440 490" version="1.1" xmlns="http://www.w3.org/2000/svg"><defs><linearGradient id="sw-gradient-0" x1="0" x2="0" y1="1" y2="0"><stop stop-color="rgba(8, 87, 159, 1)" offset="0%"/><stop stop-color="rgba(66.983, 157.179, 239.383, 1)" offset="100%"/></linearGradient></defs><path style="transform:translate(0, 0px); opacity:1" fill="url(#sw-gradient-0)" d="M0,245L60,269.5C120,294,240,343,360,359.3C480,376,600,359,720,318.5C840,278,960,212,1080,171.5C1200,131,1320,114,1440,114.3C1560,114,1680,131,1800,130.7C1920,131,2040,114,2160,147C2280,180,2400,261,2520,253.2C2640,245,2760,147,2880,138.8C3000,131,3120,212,3240,220.5C3360,229,3480,163,3600,179.7C3720,196,3840,294,3960,285.8C4080,278,4200,163,4320,98C4440,33,4560,16,4680,57.2C4800,98,4920,196,5040,212.3C5160,229,5280,163,5400,122.5C5520,82,5640,65,5760,49C5880,33,6000,16,6120,8.2C6240,0,6360,0,6480,49C6600,98,6720,196,6840,269.5C6960,343,7080,392,7200,408.3C7320,425,7440,408,7560,351.2C7680,294,7800,196,7920,163.3C8040,131,8160,163,8280,187.8C8400,212,8520,229,8580,236.8L8640,245L8640,490L8580,490C8520,490,8400,490,8280,490C8160,490,8040,490,7920,490C7800,490,7680,490,7560,490C7440,490,7320,490,7200,490C7080,490,6960,490,6840,490C6720,490,6600,490,6480,490C6360,490,6240,490,6120,490C6000,490,5880,490,5760,490C5640,490,5520,490,5400,490C5280,490,5160,490,5040,490C4920,490,4800,490,4680,490C4560,490,4440,490,4320,490C4200,490,4080,490,3960,490C3840,490,3720,490,3600,490C3480,490,3360,490,3240,490C3120,490,3000,490,2880,490C2760,490,2640,490,2520,490C2400,490,2280,490,2160,490C2040,490,1920,490,1800,490C1680,490,1560,490,1440,490C1320,490,1200,490,1080,490C960,490,840,490,720,490C600,490,480,490,360,490C240,490,120,490,60,490L0,490Z"/><defs><linearGradient id="sw-gradient-1" x1="0" x2="0" y1="1" y2="0"><stop stop-color="rgba(8, 87, 159, 1)" offset="0%"/><stop stop-color="rgba(162.052, 210.576, 255, 1)" offset="100%"/></linearGradient></defs><path style="transform:translate(0, 50px); opacity:0.9" fill="url(#sw-gradient-1)" d="M0,98L60,138.8C120,180,240,261,360,318.5C480,376,600,408,720,416.5C840,425,960,408,1080,334.8C1200,261,1320,131,1440,98C1560,65,1680,131,1800,196C1920,261,2040,327,2160,334.8C2280,343,2400,294,2520,269.5C2640,245,2760,245,2880,228.7C3000,212,3120,180,3240,147C3360,114,3480,82,3600,98C3720,114,3840,180,3960,220.5C4080,261,4200,278,4320,285.8C4440,294,4560,294,4680,245C4800,196,4920,98,5040,106.2C5160,114,5280,229,5400,261.3C5520,294,5640,245,5760,253.2C5880,261,6000,327,6120,359.3C6240,392,6360,392,6480,400.2C6600,408,6720,425,6840,392C6960,359,7080,278,7200,253.2C7320,229,7440,261,7560,228.7C7680,196,7800,98,7920,65.3C8040,33,8160,65,8280,81.7C8400,98,8520,98,8580,98L8640,98L8640,490L8580,490C8520,490,8400,490,8280,490C8160,490,8040,490,7920,490C7800,490,7680,490,7560,490C7440,490,7320,490,7200,490C7080,490,6960,490,6840,490C6720,490,6600,490,6480,490C6360,490,6240,490,6120,490C6000,490,5880,490,5760,490C5640,490,5520,490,5400,490C5280,490,5160,490,5040,490C4920,490,4800,490,4680,490C4560,490,4440,490,4320,490C4200,490,4080,490,3960,490C3840,490,3720,490,3600,490C3480,490,3360,490,3240,490C3120,490,3000,490,2880,490C2760,490,2640,490,2520,490C2400,490,2280,490,2160,490C2040,490,1920,490,1800,490C1680,490,1560,490,1440,490C1320,490,1200,490,1080,490C960,490,840,490,720,490C600,490,480,490,360,490C240,490,120,490,60,490L0,490Z"/></svg>