<svg xmlns="http://www.w3.org/2000/svg" version="1.1" xmlns:xlink="http://www.w3.org/1999/xlink" xmlns:svgjs="http://svgjs.dev/svgjs" viewBox="0 0 2400 800" opacity="0.7"><defs><linearGradient x1="50%" y1="0%" x2="50%" y2="100%" id="sssurf-grad"><stop stop-color="hsla(0, 0%, 0%, 1.00)" stop-opacity="1" offset="0%"></stop><stop stop-color="hsla(0, 0%, 14%, 0.18)" stop-opacity="1" offset="100%"></stop></linearGradient></defs><g fill="url(#sssurf-grad)" transform="matrix(1,0,0,1,9.109130859375,220.51346588134766)"><path d="M-10,10C37.53787878787879,16.666666666666664,125.18939393939395,45.958333333333336,218.1818181818182,42C311.17424242424244,38.041666666666664,345.4545454545455,-6.291666666666667,436.3636363636364,-9C527.2727272727273,-11.708333333333332,563.6363636363636,32.333333333333336,654.5454545454545,29C745.4545454545454,25.666666666666668,781.8181818181818,-30.208333333333336,872.7272727272727,-25C963.6363636363637,-19.791666666666664,1000.0000000000001,55.25,1090.909090909091,54C1181.818181818182,52.75,1218.181818181818,-29.333333333333332,1309.090909090909,-31C1400,-32.666666666666664,1436.3636363636363,43.5,1527.2727272727273,46C1618.1818181818182,48.5,1654.5454545454545,-16.916666666666668,1745.4545454545455,-19C1836.3636363636365,-21.083333333333332,1872.7272727272727,30.375,1963.6363636363637,36C2054.5454545454545,41.625,2090.909090909091,1.333333333333334,2181.818181818182,8C2272.727272727273,14.666666666666666,2302.462121212121,-13.666666666666657,2400,68C2497.537878787879,149.66666666666666,3254.1666666666665,226.66666666666669,2650,400C2045.8333333333335,573.3333333333333,156.25,795.8333333333334,-500,900" transform="matrix(1,0,0,1,0,58)" opacity="0.05"></path><path d="M-10,10C37.53787878787879,16.666666666666664,125.18939393939395,45.958333333333336,218.1818181818182,42C311.17424242424244,38.041666666666664,345.4545454545455,-6.291666666666667,436.3636363636364,-9C527.2727272727273,-11.708333333333332,563.6363636363636,32.333333333333336,654.5454545454545,29C745.4545454545454,25.666666666666668,781.8181818181818,-30.208333333333336,872.7272727272727,-25C963.6363636363637,-19.791666666666664,1000.0000000000001,55.25,1090.909090909091,54C1181.818181818182,52.75,1218.181818181818,-29.333333333333332,1309.090909090909,-31C1400,-32.666666666666664,1436.3636363636363,43.5,1527.2727272727273,46C1618.1818181818182,48.5,1654.5454545454545,-16.916666666666668,1745.4545454545455,-19C1836.3636363636365,-21.083333333333332,1872.7272727272727,30.375,1963.6363636363637,36C2054.5454545454545,41.625,2090.909090909091,1.333333333333334,2181.818181818182,8C2272.727272727273,14.666666666666666,2302.462121212121,-13.666666666666657,2400,68C2497.537878787879,149.66666666666666,3254.1666666666665,226.66666666666669,2650,400C2045.8333333333335,573.3333333333333,156.25,795.8333333333334,-500,900" transform="matrix(1,0,0,1,0,116)" opacity="0.37"></path><path d="M-10,10C37.53787878787879,16.666666666666664,125.18939393939395,45.958333333333336,218.1818181818182,42C311.17424242424244,38.041666666666664,345.4545454545455,-6.291666666666667,436.3636363636364,-9C527.2727272727273,-11.708333333333332,563.6363636363636,32.333333333333336,654.5454545454545,29C745.4545454545454,25.666666666666668,781.8181818181818,-30.208333333333336,872.7272727272727,-25C963.6363636363637,-19.791666666666664,1000.0000000000001,55.25,1090.909090909091,54C1181.818181818182,52.75,1218.181818181818,-29.333333333333332,1309.090909090909,-31C1400,-32.666666666666664,1436.3636363636363,43.5,1527.2727272727273,46C1618.1818181818182,48.5,1654.5454545454545,-16.916666666666668,1745.4545454545455,-19C1836.3636363636365,-21.083333333333332,1872.7272727272727,30.375,1963.6363636363637,36C2054.5454545454545,41.625,2090.909090909091,1.333333333333334,2181.818181818182,8C2272.727272727273,14.666666666666666,2302.462121212121,-13.666666666666657,2400,68C2497.537878787879,149.66666666666666,3254.1666666666665,226.66666666666669,2650,400C2045.8333333333335,573.3333333333333,156.25,795.8333333333334,-500,900" transform="matrix(1,0,0,1,0,174)" opacity="0.68"></path><path d="M-10,10C37.53787878787879,16.666666666666664,125.18939393939395,45.958333333333336,218.1818181818182,42C311.17424242424244,38.041666666666664,345.4545454545455,-6.291666666666667,436.3636363636364,-9C527.2727272727273,-11.708333333333332,563.6363636363636,32.333333333333336,654.5454545454545,29C745.4545454545454,25.666666666666668,781.8181818181818,-30.208333333333336,872.7272727272727,-25C963.6363636363637,-19.791666666666664,1000.0000000000001,55.25,1090.909090909091,54C1181.818181818182,52.75,1218.181818181818,-29.333333333333332,1309.090909090909,-31C1400,-32.666666666666664,1436.3636363636363,43.5,1527.2727272727273,46C1618.1818181818182,48.5,1654.5454545454545,-16.916666666666668,1745.4545454545455,-19C1836.3636363636365,-21.083333333333332,1872.7272727272727,30.375,1963.6363636363637,36C2054.5454545454545,41.625,2090.909090909091,1.333333333333334,2181.818181818182,8C2272.727272727273,14.666666666666666,2302.462121212121,-13.666666666666657,2400,68C2497.537878787879,149.66666666666666,3254.1666666666665,226.66666666666669,2650,400C2045.8333333333335,573.3333333333333,156.25,795.8333333333334,-500,900" transform="matrix(1,0,0,1,0,232)" opacity="1.00"></path></g></svg>