<?xml version="1.0" standalone="no"?>
<svg xmlns:xlink="http://www.w3.org/1999/xlink" id="wave" style="transform:rotate(0deg); transition: 0.3s" viewBox="0 0 1440 490" version="1.1" xmlns="http://www.w3.org/2000/svg"><defs><linearGradient id="sw-gradient-0" x1="0" x2="0" y1="1" y2="0"><stop stop-color="rgba(234.829, 74.709, 23.284, 1)" offset="0%"/><stop stop-color="rgba(255, 179, 11, 1)" offset="100%"/></linearGradient></defs><path style="transform:translate(0, 0px); opacity:1" fill="url(#sw-gradient-0)" d="M0,196L60,228.7C120,261,240,327,360,351.2C480,376,600,359,720,326.7C840,294,960,245,1080,261.3C1200,278,1320,359,1440,400.2C1560,441,1680,441,1800,416.5C1920,392,2040,343,2160,310.3C2280,278,2400,261,2520,245C2640,229,2760,212,2880,196C3000,180,3120,163,3240,196C3360,229,3480,310,3600,318.5C3720,327,3840,261,3960,212.3C4080,163,4200,131,4320,155.2C4440,180,4560,261,4680,253.2C4800,245,4920,147,5040,155.2C5160,163,5280,278,5400,302.2C5520,327,5640,261,5760,261.3C5880,261,6000,327,6120,326.7C6240,327,6360,261,6480,220.5C6600,180,6720,163,6840,204.2C6960,245,7080,343,7200,343C7320,343,7440,245,7560,228.7C7680,212,7800,278,7920,318.5C8040,359,8160,376,8280,351.2C8400,327,8520,261,8580,228.7L8640,196L8640,490L8580,490C8520,490,8400,490,8280,490C8160,490,8040,490,7920,490C7800,490,7680,490,7560,490C7440,490,7320,490,7200,490C7080,490,6960,490,6840,490C6720,490,6600,490,6480,490C6360,490,6240,490,6120,490C6000,490,5880,490,5760,490C5640,490,5520,490,5400,490C5280,490,5160,490,5040,490C4920,490,4800,490,4680,490C4560,490,4440,490,4320,490C4200,490,4080,490,3960,490C3840,490,3720,490,3600,490C3480,490,3360,490,3240,490C3120,490,3000,490,2880,490C2760,490,2640,490,2520,490C2400,490,2280,490,2160,490C2040,490,1920,490,1800,490C1680,490,1560,490,1440,490C1320,490,1200,490,1080,490C960,490,840,490,720,490C600,490,480,490,360,490C240,490,120,490,60,490L0,490Z"/><defs><linearGradient id="sw-gradient-1" x1="0" x2="0" y1="1" y2="0"><stop stop-color="rgba(216.615, 74.469, 28.816, 1)" offset="0%"/><stop stop-color="rgba(255, 179, 11, 1)" offset="100%"/></linearGradient></defs><path style="transform:translate(0, 50px); opacity:0.9" fill="url(#sw-gradient-1)" d="M0,196L60,220.5C120,245,240,294,360,269.5C480,245,600,147,720,122.5C840,98,960,147,1080,155.2C1200,163,1320,131,1440,122.5C1560,114,1680,131,1800,179.7C1920,229,2040,310,2160,294C2280,278,2400,163,2520,138.8C2640,114,2760,180,2880,187.8C3000,196,3120,147,3240,147C3360,147,3480,196,3600,179.7C3720,163,3840,82,3960,49C4080,16,4200,33,4320,65.3C4440,98,4560,147,4680,179.7C4800,212,4920,229,5040,212.3C5160,196,5280,147,5400,155.2C5520,163,5640,229,5760,253.2C5880,278,6000,261,6120,245C6240,229,6360,212,6480,187.8C6600,163,6720,131,6840,147C6960,163,7080,229,7200,220.5C7320,212,7440,131,7560,147C7680,163,7800,278,7920,334.8C8040,392,8160,392,8280,334.8C8400,278,8520,163,8580,106.2L8640,49L8640,490L8580,490C8520,490,8400,490,8280,490C8160,490,8040,490,7920,490C7800,490,7680,490,7560,490C7440,490,7320,490,7200,490C7080,490,6960,490,6840,490C6720,490,6600,490,6480,490C6360,490,6240,490,6120,490C6000,490,5880,490,5760,490C5640,490,5520,490,5400,490C5280,490,5160,490,5040,490C4920,490,4800,490,4680,490C4560,490,4440,490,4320,490C4200,490,4080,490,3960,490C3840,490,3720,490,3600,490C3480,490,3360,490,3240,490C3120,490,3000,490,2880,490C2760,490,2640,490,2520,490C2400,490,2280,490,2160,490C2040,490,1920,490,1800,490C1680,490,1560,490,1440,490C1320,490,1200,490,1080,490C960,490,840,490,720,490C600,490,480,490,360,490C240,490,120,490,60,490L0,490Z"/></svg>