<?xml version="1.0" standalone="no"?>
<svg xmlns:xlink="http://www.w3.org/1999/xlink" id="wave" style="transform:rotate(0deg); transition: 0.3s" viewBox="0 0 1440 410" version="1.1" xmlns="http://www.w3.org/2000/svg"><defs><linearGradient id="sw-gradient-0" x1="0" x2="0" y1="1" y2="0"><stop stop-color="rgba(243, 106, 62, 1)" offset="0%"/><stop stop-color="rgba(255, 179, 11, 1)" offset="100%"/></linearGradient></defs><path style="transform:translate(0, 0px); opacity:1" fill="url(#sw-gradient-0)" d="M0,246L60,252.8C120,260,240,273,360,252.8C480,232,600,178,720,143.5C840,109,960,96,1080,123C1200,150,1320,219,1440,232.3C1560,246,1680,205,1800,170.8C1920,137,2040,109,2160,129.8C2280,150,2400,219,2520,239.2C2640,260,2760,232,2880,225.5C3000,219,3120,232,3240,211.8C3360,191,3480,137,3600,129.8C3720,123,3840,164,3960,205C4080,246,4200,287,4320,293.8C4440,301,4560,273,4680,259.7C4800,246,4920,246,5040,259.7C5160,273,5280,301,5400,273.3C5520,246,5640,164,5760,157.2C5880,150,6000,219,6120,211.8C6240,205,6360,123,6480,129.8C6600,137,6720,232,6840,232.3C6960,232,7080,137,7200,109.3C7320,82,7440,123,7560,157.2C7680,191,7800,219,7920,239.2C8040,260,8160,273,8280,259.7C8400,246,8520,205,8580,184.5L8640,164L8640,410L8580,410C8520,410,8400,410,8280,410C8160,410,8040,410,7920,410C7800,410,7680,410,7560,410C7440,410,7320,410,7200,410C7080,410,6960,410,6840,410C6720,410,6600,410,6480,410C6360,410,6240,410,6120,410C6000,410,5880,410,5760,410C5640,410,5520,410,5400,410C5280,410,5160,410,5040,410C4920,410,4800,410,4680,410C4560,410,4440,410,4320,410C4200,410,4080,410,3960,410C3840,410,3720,410,3600,410C3480,410,3360,410,3240,410C3120,410,3000,410,2880,410C2760,410,2640,410,2520,410C2400,410,2280,410,2160,410C2040,410,1920,410,1800,410C1680,410,1560,410,1440,410C1320,410,1200,410,1080,410C960,410,840,410,720,410C600,410,480,410,360,410C240,410,120,410,60,410L0,410Z"/><defs><linearGradient id="sw-gradient-1" x1="0" x2="0" y1="1" y2="0"><stop stop-color="rgba(243, 106, 62, 1)" offset="0%"/><stop stop-color="rgba(255, 179, 11, 1)" offset="100%"/></linearGradient></defs><path style="transform:translate(0, 50px); opacity:0.9" fill="url(#sw-gradient-1)" d="M0,369L60,369C120,369,240,369,360,362.2C480,355,600,342,720,328C840,314,960,301,1080,300.7C1200,301,1320,314,1440,280.2C1560,246,1680,164,1800,123C1920,82,2040,82,2160,68.3C2280,55,2400,27,2520,27.3C2640,27,2760,55,2880,109.3C3000,164,3120,246,3240,280.2C3360,314,3480,301,3600,287C3720,273,3840,260,3960,225.5C4080,191,4200,137,4320,143.5C4440,150,4560,219,4680,239.2C4800,260,4920,232,5040,239.2C5160,246,5280,287,5400,287C5520,287,5640,246,5760,198.2C5880,150,6000,96,6120,68.3C6240,41,6360,41,6480,95.7C6600,150,6720,260,6840,280.2C6960,301,7080,232,7200,211.8C7320,191,7440,219,7560,191.3C7680,164,7800,82,7920,54.7C8040,27,8160,55,8280,75.2C8400,96,8520,109,8580,116.2L8640,123L8640,410L8580,410C8520,410,8400,410,8280,410C8160,410,8040,410,7920,410C7800,410,7680,410,7560,410C7440,410,7320,410,7200,410C7080,410,6960,410,6840,410C6720,410,6600,410,6480,410C6360,410,6240,410,6120,410C6000,410,5880,410,5760,410C5640,410,5520,410,5400,410C5280,410,5160,410,5040,410C4920,410,4800,410,4680,410C4560,410,4440,410,4320,410C4200,410,4080,410,3960,410C3840,410,3720,410,3600,410C3480,410,3360,410,3240,410C3120,410,3000,410,2880,410C2760,410,2640,410,2520,410C2400,410,2280,410,2160,410C2040,410,1920,410,1800,410C1680,410,1560,410,1440,410C1320,410,1200,410,1080,410C960,410,840,410,720,410C600,410,480,410,360,410C240,410,120,410,60,410L0,410Z"/></svg>